<?xml version="1.0" encoding="UTF-8"?>
<svg id="Layer_1" xmlns="http://www.w3.org/2000/svg" version="1.1" xmlns:xlink="http://www.w3.org/1999/xlink" viewBox="0 0 4058 459.9">
  <!-- Generator: Adobe Illustrator 30.0.0, SVG Export Plug-In . SVG Version: 2.1.1 Build 123)  -->
  <defs>
    <style>
      .st0 {
        fill: url(#linear-gradient2);
      }

      .st1 {
        fill: url(#linear-gradient10);
      }

      .st2 {
        fill: #fff;
      }

      .st3 {
        fill: url(#linear-gradient1);
      }

      .st4 {
        fill: url(#linear-gradient9);
      }

      .st5 {
        fill: url(#linear-gradient8);
      }

      .st6 {
        fill: url(#linear-gradient11);
      }

      .st7 {
        fill: none;
      }

      .st8 {
        fill: url(#linear-gradient12);
      }

      .st9 {
        fill: url(#linear-gradient7);
      }

      .st10 {
        fill: url(#linear-gradient4);
      }

      .st11 {
        fill: url(#linear-gradient5);
      }

      .st12 {
        fill: url(#linear-gradient3);
      }

      .st13 {
        fill: url(#linear-gradient6);
      }

      .st14 {
        fill: #0082fb;
      }

      .st15 {
        fill: url(#linear-gradient);
      }
    </style>
    <linearGradient id="linear-gradient" x1="346.86" y1="869.29" x2="210.85" y2="691.07" gradientTransform="translate(0 -623.28)" gradientUnits="userSpaceOnUse">
      <stop offset="0" stop-color="#0867df"/>
      <stop offset=".45" stop-color="#0668e1"/>
      <stop offset=".86" stop-color="#0064e0"/>
    </linearGradient>
    <linearGradient id="linear-gradient1" x1="82.08" y1="753.88" x2="175.32" y2="683.09" gradientTransform="translate(0 -623.28)" gradientUnits="userSpaceOnUse">
      <stop offset=".13" stop-color="#0064df"/>
      <stop offset="1" stop-color="#0064e0"/>
    </linearGradient>
    <linearGradient id="linear-gradient2" x1="42.48" y1="857.71" x2="79.88" y2="763.55" gradientTransform="translate(0 -623.28)" gradientUnits="userSpaceOnUse">
      <stop offset=".01" stop-color="#0072ec"/>
      <stop offset=".69" stop-color="#0064df"/>
    </linearGradient>
    <linearGradient id="linear-gradient3" x1="37.47" y1="925.75" x2="41.8" y2="868.25" gradientTransform="translate(0 -623.28)" gradientUnits="userSpaceOnUse">
      <stop offset=".07" stop-color="#007cf6"/>
      <stop offset=".99" stop-color="#0072ec"/>
    </linearGradient>
    <linearGradient id="linear-gradient4" x1="39.88" y1="956.98" x2="36.78" y2="933.94" gradientTransform="translate(0 -623.28)" gradientUnits="userSpaceOnUse">
      <stop offset=".07" stop-color="#007ff9"/>
      <stop offset="1" stop-color="#007cf6"/>
    </linearGradient>
    <linearGradient id="linear-gradient5" x1="38.04" y1="963.03" x2="57.33" y2="1003.94" gradientTransform="translate(0 -623.28)" gradientUnits="userSpaceOnUse">
      <stop offset=".07" stop-color="#007ff9"/>
      <stop offset="1" stop-color="#0082fb"/>
    </linearGradient>
    <linearGradient id="linear-gradient6" x1="334.48" y1="765" x2="359.98" y2="729.72" gradientTransform="translate(0 -623.28)" gradientUnits="userSpaceOnUse">
      <stop offset=".28" stop-color="#007ff8"/>
      <stop offset=".91" stop-color="#0082fb"/>
    </linearGradient>
    <linearGradient id="linear-gradient7" x1="528.44" y1="719.33" x2="581.79" y2="915.61" gradientTransform="translate(0 -623.28)" gradientUnits="userSpaceOnUse">
      <stop offset="0" stop-color="#0082fb"/>
      <stop offset="1" stop-color="#0081fa"/>
    </linearGradient>
    <linearGradient id="linear-gradient8" x1="594.69" y1="923.11" x2="560.93" y2="991.35" gradientTransform="translate(0 -623.28)" gradientUnits="userSpaceOnUse">
      <stop offset=".06" stop-color="#0081fa"/>
      <stop offset="1" stop-color="#0080f9"/>
    </linearGradient>
    <linearGradient id="linear-gradient9" x1="534.06" y1="1027.48" x2="565.63" y2="1005.98" gradientTransform="translate(0 -623.28)" gradientUnits="userSpaceOnUse">
      <stop offset="0" stop-color="#027af3"/>
      <stop offset="1" stop-color="#0080f9"/>
    </linearGradient>
    <linearGradient id="linear-gradient10" x1="484.59" y1="1031.79" x2="528.45" y2="1031.79" gradientTransform="translate(0 -623.28)" gradientUnits="userSpaceOnUse">
      <stop offset="0" stop-color="#0377ef"/>
      <stop offset="1" stop-color="#0279f1"/>
    </linearGradient>
    <linearGradient id="linear-gradient11" x1="446.44" y1="1007.59" x2="477.98" y2="1026.14" gradientTransform="translate(0 -623.28)" gradientUnits="userSpaceOnUse">
      <stop offset="0" stop-color="#0471e9"/>
      <stop offset="1" stop-color="#0377ef"/>
    </linearGradient>
    <linearGradient id="linear-gradient12" x1="350.24" y1="870.79" x2="451.26" y2="997.79" gradientTransform="translate(0 -623.28)" gradientUnits="userSpaceOnUse">
      <stop offset=".28" stop-color="#0867df"/>
      <stop offset="1" stop-color="#0471e9"/>
    </linearGradient>
  </defs>
  <g id="Artboard_outline">
    <rect class="st7" x="-378.1" y="-373.6" width="4811.6" height="1203.4"/>
  </g>
  <g id="Lockup">
    <g>
      <g>
        <path class="st2" d="M739.5,52.6h75.9l129,233.4,129-233.4h74.2v383.5h-61.9V142.2l-113.1,203.5h-58.1l-113.1-203.5v293.9h-61.9V52.6Z"/>
        <path class="st2" d="M1347.3,443c-28.7,0-53.9-6.3-75.6-19-21.5-12.5-39.1-30.8-50.8-52.7-12.1-22.5-18.2-48.2-18.2-77.2s5.9-55.4,17.8-78.1c11.9-22.6,28.4-40.4,49.4-53.1,21.1-12.8,45.3-19.2,72.7-19.2s50.6,6.4,70.3,19.3c19.6,12.9,34.7,30.9,45.3,54.1,10.6,23.2,15.9,50.4,15.9,81.6v17h-210.1c3.8,23.4,13.3,41.8,28.3,55.2,15.1,13.4,34.1,20.1,57.1,20.1,18.4,0,34.3-2.7,47.7-8.2,13.3-5.5,25.8-13.8,37.5-24.9l32.9,40.3c-32.6,29.8-72.7,44.8-120.2,44.8ZM1392.5,215.5c-13-13.2-30-19.9-50.9-19.9s-37.6,6.8-51.4,20.3-22.5,31.7-26.2,54.5h150.7c-1.8-23.4-9.2-41.7-22.2-54.9h0Z"/>
        <path class="st2" d="M1549.2,201.1h-57v-50.7h57v-83.8h59.7v83.8h86.6v50.7h-86.6v128.5c0,21.4,3.7,36.6,11,45.7s19.8,13.7,37.5,13.7c6.7.1,13.4-.3,20-1,5.5-.6,11.5-1.5,18.1-2.6v50.1c-7.5,2.2-15.1,3.8-22.9,4.9-8.8,1.3-17.8,1.9-26.7,1.9-64.5,0-96.7-35.2-96.7-105.7v-135.5Z"/>
        <path class="st2" d="M2006.7,436.1h-58.7v-40c-10.1,14.7-23.8,26.6-39.7,34.7-16.1,8.1-34.3,12.2-54.8,12.2-25.2,0-47.5-6.4-67-19.3s-34.7-30.6-45.9-53.1c-11.1-22.6-16.7-48.3-16.7-77.4s5.7-55.1,17-77.5c11.3-22.5,27-40.1,47-52.9,20-12.8,43-19.2,68.9-19.2,19.5,0,37.1,3.8,52.6,11.4,15.3,7.4,28.6,18.5,38.6,32.2v-36.7h58.6v285.6h.1ZM1946.9,250.4c-6.4-16.3-16.5-29.1-30.3-38.5s-29.7-14.1-47.8-14.1c-25.6,0-45.9,8.6-61.1,25.7-15.2,17.2-22.7,40.4-22.7,69.6s7.3,52.7,21.9,69.8c14.6,17.2,34.4,25.7,59.4,25.7,18.4,0,34.9-4.7,49.3-14.2,14.2-9.2,25.1-22.6,31.2-38.3l.1-85.7Z"/>
        <path class="st2" d="M2152.1,52.6h63.5v161.1h195.9V52.6h63.5v383.5h-63.5v-163.5h-195.9v163.5h-63.5V52.6Z"/>
        <path class="st2" d="M2547,371.5c-12.3-22.5-18.5-48.5-18.5-78.1s6.2-55.9,18.5-78.3c11.9-22,29.7-40.2,51.5-52.6,22-12.6,47.5-18.9,76.6-18.9s54.6,6.3,76.6,18.9c21.8,12.4,39.6,30.6,51.5,52.6,12.3,22.5,18.5,48.6,18.5,78.3s-6.2,55.6-18.5,78.1c-11.9,22-29.7,40.2-51.5,52.6-22,12.6-47.5,18.9-76.6,18.9s-54.3-6.3-76.4-18.9c-21.9-12.4-39.8-30.6-51.7-52.6ZM2760.5,293.4c0-28.7-7.8-51.7-23.4-69-15.6-17.3-36.3-26-62-26s-46.4,8.7-62,26-23.4,40.4-23.4,69,7.8,51.4,23.4,68.8c15.6,17.3,36.3,26,62,26s46.4-8.7,62-26c15.6-17.4,23.4-40.3,23.4-68.8Z"/>
        <path class="st2" d="M2872,150.4h58.9v43.8c18.4-32,43.6-47.9,75.6-47.9,10.4,0,18.9.9,25.5,2.7v55.1c-9-1.3-18-1.9-27.1-1.9-35.8,0-60.2,16.1-73.1,48.2v185.7h-59.8V150.4Z"/>
        <path class="st2" d="M3077.1,102.1c-7.3-7.2-11-16.4-11-27.5s3.7-20.5,11-27.7c7.3-7.1,16.7-10.7,28.2-10.7s20.9,3.6,28.2,10.7c7.3,7.1,11,16.3,11,27.7s-3.7,20.3-11,27.5c-7.3,7.2-16.7,10.8-28.2,10.8s-20.9-3.6-28.2-10.8ZM3075.5,150.4h59.7v285.7h-59.7V150.4Z"/>
        <path class="st2" d="M3264.7,385.4h163v50.7h-236.9v-48.2l160.2-186.8h-154.8v-50.7h228.8v47.9l-160.3,187.1Z"/>
        <path class="st2" d="M3469,371.5c-12.3-22.5-18.5-48.5-18.5-78.1s6.2-55.9,18.5-78.3c11.9-22,29.7-40.2,51.5-52.6,22-12.6,47.5-18.9,76.6-18.9s54.6,6.3,76.6,18.9c21.8,12.4,39.6,30.6,51.5,52.6,12.3,22.5,18.5,48.6,18.5,78.3s-6.2,55.6-18.5,78.1c-11.9,22-29.7,40.2-51.5,52.6-22,12.6-47.5,18.9-76.6,18.9s-54.3-6.3-76.4-18.9c-21.9-12.4-39.8-30.6-51.7-52.6ZM3682.5,293.4c0-28.7-7.8-51.7-23.4-69-15.6-17.3-36.3-26-62-26s-46.4,8.7-62,26-23.4,40.4-23.4,69,7.8,51.4,23.4,68.8,36.3,26,62,26,46.4-8.7,62-26c15.6-17.4,23.4-40.3,23.4-68.8Z"/>
        <path class="st2" d="M3794,150.4h58.9v41.6c22.1-32.3,52.9-48.5,92.3-48.5,34,0,60.1,10.6,78.3,31.8,18.3,21.2,27.4,51.5,27.4,90.9v169.8h-59.7v-162.6c0-26.7-4.7-46.3-14.2-58.9-9.5-12.6-24.4-18.9-44.7-18.9-17.7,0-33.3,4.6-46.8,13.7-13.5,9.1-24.1,21.9-31.8,38.3v188.5h-59.7V150.4Z"/>
      </g>
      <g>
        <path class="st15" d="M178.9,39.6h-.6l-.8,65.9h.5c43.4,0,77.1,34.2,150.3,157.5l4.5,7.5.3.5,41-61.5-.3-.5h0c-9.6-15.7-18.9-30.1-27.8-43.3-10.3-15.3-20.2-28.9-29.7-41.1-48.4-61.5-88.9-85-137.4-85Z"/>
        <path class="st3" d="M178.3,39.6c-48.7.3-91.7,31.7-122.8,79.9-.1.1-.2.3-.3.4l57.1,31.1c.1-.1.2-.3.3-.4,18.1-27.3,40.7-44.8,65-45h.5l.8-65.9c-.2-.1-.4-.1-.6-.1Z"/>
        <path class="st0" d="M55.5,119.5c-.1.1-.2.3-.3.4-20.4,31.8-35.6,70.8-43.9,112.9,0,.2-.1.4-.1.5l64.1,15.1c0-.2.1-.4.1-.5,6.9-37,19.9-71.3,36.8-97,.1-.1.2-.3.3-.4l-57-31Z"/>
        <path class="st12" d="M75.5,247.9l-64.1-15.1c0,.2-.1.4-.1.5-4.5,23.1-6.8,46.7-6.8,70.2v.6l65.7,5.9v-4.8c0-19.1,1.8-38.1,5.2-56.8,0-.1,0-.3.1-.5Z"/>
        <path class="st10" d="M72.2,330.5c-1.2-6.8-1.8-13.6-2-20.5v-.6l-65.7-5.9v.6h0c-.1,13.8,1.1,27.5,3.6,41.1,0,.2.1.4.1.5l64.1-14.8s-.1-.2-.1-.4Z"/>
        <path class="st11" d="M87.2,364.6c-7.2-7.8-12.2-19.1-14.9-33.5,0-.2-.1-.4-.1-.5l-64.1,14.7c0,.2.1.4.1.5,4.8,25.4,14.4,46.7,28,62.7.1.1.2.3.4.4l51.1-44c-.3-.1-.4-.2-.5-.3Z"/>
        <path class="st14" d="M277.2,182.1c-38.6,59.3-62.1,96.5-62.1,96.5-51.5,80.7-69.3,98.8-97.9,98.8-12,0-22-4.3-29.6-12.4-.1-.1-.3-.3-.4-.4l-51,44c.1.1.2.3.4.4,18.8,21.9,45.3,34.1,78.2,34.1,49.7,0,85.4-23.4,148.9-134.4,0,0,26.5-46.7,44.7-78.9-11.5-18.3-21.8-34.1-31.2-47.7Z"/>
        <path class="st13" d="M346,88.6c-.1.1-.3.3-.4.4-10.5,11.3-20.3,23.2-29.4,35.7,9.6,12.2,19.4,25.8,29.7,41.1,12.1-18.7,23.5-33.9,34.6-45.6.1-.1.3-.3.4-.4l-34.9-31.2Z"/>
        <path class="st14" d="M533.6,82.8c-26.9-27.2-59.1-43.2-93.4-43.2-36.2,0-66.7,19.9-94.2,49-.1.1-.3.3-.4.4l35,31.2c.1-.1.3-.3.4-.4,18.1-18.8,35.6-28.2,55-28.2h0c20.9,0,40.5,9.8,57.4,27.1.1.1.3.3.4.4l40.2-35.9c-.1-.2-.2-.3-.4-.4Z"/>
        <path class="st9" d="M611.6,294.9c-1.6-87.4-32.1-165.6-77.6-211.7-.1-.1-.3-.3-.4-.4l-40.2,35.9c.1.1.3.3.4.4,34.2,35.1,57.6,100.4,59.7,175.8v.6h58c.1-.2.1-.4.1-.6Z"/>
        <path class="st5" d="M611.6,295.5v-.6h-58v.6c.1,3.5.1,7.1.1,10.7,0,20.6-3.1,37.2-9.3,49.2-.1.2-.2.4-.3.5l43.2,45c.1-.2.2-.3.3-.5,15.7-24.2,23.9-57.9,23.9-98.6.1-2.2.1-4.3.1-6.3Z"/>
        <path class="st4" d="M544.4,355.3c-.1.2-.2.4-.3.5-5.4,10.1-13.1,16.9-23.2,19.8l19.7,62.1c2.6-.9,5.1-1.9,7.6-3,.7-.3,1.5-.7,2.2-1,.4-.2.8-.4,1.3-.6,13.1-6.6,24.5-16.4,32.9-28.4.5-.8,1.1-1.5,1.6-2.3.4-.5.7-1.1,1.1-1.7.1-.2.2-.3.3-.5l-43.2-44.9Z"/>
        <path class="st1" d="M508.4,377.4c-6.2.1-12.4-1.1-18.1-3.5l-20.2,63.6c11.3,3.9,23.4,5.6,36.9,5.6,11.6.1,23.2-1.7,34.2-5.4l-19.7-62.1c-4.3,1.2-8.7,1.8-13.1,1.8Z"/>
        <path class="st6" d="M468,355.6c-.1-.1-.2-.3-.4-.4l-46.4,48.3.4.4c16.1,17.2,31.5,27.9,49,33.7l20.2-63.5c-7.4-3.2-14.5-8.9-22.8-18.5Z"/>
        <path class="st8" d="M467.6,355.2c-13.9-16.2-31.2-43.2-58.3-86.8l-35.3-58.9-.3-.5h0l-41,61.4h0l.3.5,25,42.1c24.3,40.6,44,69.9,63.1,90.4l.4.4,46.4-48.3s-.1-.2-.3-.3Z"/>
      </g>
    </g>
  </g>
</svg>